FFmpeg version SVN-r25716, Copyright (c) 2000-2010 the FFmpeg developers  built on Nov 10 2010 12:23:18 with gcc 4.1.2 20080704 (Red Hat 4.1.2-48)  configuration: --enable-libmp3lame --enable-shared --disable-mmx --arch=x86_64  libavutil     50.33. 0 / 50.33. 0  libavcore      0.12. 1 /  0.12. 1  libavcodec    52.94. 4 / 52.94. 4  libavformat   52.84. 0 / 52.84. 0  libavdevice   52. 2. 2 / 52. 2. 2  libavfilter    1.59. 0 /  1.59. 0  libswscale     0.12. 0 /  0.12. 0Input #0, avi, from '/RAID10/data/converted_video_files/47601.avi':  Duration: 00:00:07.10, start: 0.000000, bitrate: 186841 kb/s    Stream #0.0: Video: msvideo1, rgb555le, 1024x1024, 20 tbr, 20 tbn, 20 tbc[buffer @ 0x14a8b380] w:1024 h:1024 pixfmt:rgb555le[ffsink @ 0x14a8a700] auto-inserting filter 'auto-inserted scaler 0' between the filter 'src' and the filter 'out'[scale @ 0x14a8a9f0] w:1024 h:1024 fmt:rgb555le -> w:1024 h:1024 fmt:yuv420p flags:0x4Output #0, flv, to '/RAID10/data/converted_video_files/47601.flv':  Metadata:    encoder         : Lavf52.84.0    Stream #0.0: Video: flv, yuv420p, 1024x1024, q=2-31, 600 kb/s, 1k tbn, 24 tbcStream mapping:  Stream #0.0 -> #0.0Press [q] to stop encodingframe=    7 fps=  0 q=9.6 size=     763kB time=0.33 bitrate=18711.9kbits/s    frame=   12 fps= 10 q=24.2 size=     818kB time=0.58 bitrate=11471.2kbits/s    frame=   20 fps= 12 q=31.0 size=     857kB time=1.00 bitrate=7023.8kbits/s    frame=   28 fps= 12 q=31.0 size=     894kB time=1.38 bitrate=5325.3kbits/s    frame=   36 fps= 13 q=31.0 size=     903kB time=1.79 bitrate=4127.1kbits/s    frame=   43 fps= 13 q=31.0 size=     938kB time=2.12 bitrate=3617.9kbits/s    frame=   52 fps= 13 q=31.0 size=     977kB time=2.58 bitrate=3096.4kbits/s    frame=   59 fps= 13 q=31.0 size=     984kB time=2.96 bitrate=2725.7kbits/s    frame=   67 fps= 13 q=31.0 size=    1022kB time=3.33 bitrate=2510.3kbits/s    frame=   77 fps= 14 q=31.0 size=    1061kB time=3.83 bitrate=2267.6kbits/s    frame=   87 fps= 14 q=31.0 size=    1102kB time=4.33 bitrate=2082.6kbits/s    frame=   96 fps= 15 q=31.0 size=    1122kB time=4.79 bitrate=1918.0kbits/s    frame=  105 fps= 15 q=31.0 size=    1161kB time=5.25 bitrate=1811.0kbits/s    frame=  115 fps= 15 q=31.0 size=    1201kB time=5.75 bitrate=1711.2kbits/s    frame=  126 fps= 15 q=31.0 size=    1240kB time=6.29 bitrate=1614.7kbits/s    frame=  135 fps= 16 q=31.0 size=    1281kB time=6.75 bitrate=1554.8kbits/s    frame=  142 fps= 15 q=31.0 size=    1288kB time=7.08 bitrate=1490.0kbits/s    frame=  142 fps= 15 q=31.0 Lsize=    1288kB time=7.08 bitrate=1490.0kbits/s    video:1286kB audio:0kB global headers:0kB muxing overhead 0.188477%